<svg xmlns="http://www.w3.org/2000/svg" width="32" height="32" viewBox="0 0 24 24" fill="none" stroke="#6366f1" stroke-width="2" stroke-linecap="round" stroke-linejoin="round" class="lucide lucide-brain-circuit">
  <path d="M12 4.5a2.5 2.5 0 0 0-4.96-.46 2.5 2.5 0 0 0-1.98 3 2.5 2.5 0 0 0-1.32 3 2.5 2.5 0 0 0-.02 3 2.5 2.5 0 0 0 1.2 3 2.5 2.5 0 0 0 2.02 3 2.5 2.5 0 0 0 4.96.46 2.5 2.5 0 0 0 1.98-3 2.5 2.5 0 0 0 1.32-3 2.5 2.5 0 0 0 .02-3 2.5 2.5 0 0 0-1.2-3 2.5 2.5 0 0 0-2.02-3"/>
  <path d="M12 2v2"/>
  <path d="M12 22v-2"/>
  <path d="M12 12h.01"/>
</svg>
